<?xml version="1.0" encoding="UTF-8"?>
<svg id="Layer_1" data-name="Layer 1" xmlns="http://www.w3.org/2000/svg" viewBox="0 0 117.25 134.08">
  <defs>
    <style>
      .cls-1 {
        fill: #a31e00;
        opacity: .53;
      }
    </style>
  </defs>
  <path class="cls-1" d="M75.91,0c22.79,0,41.34,18.54,41.34,41.34,0,22.79-18.54,41.34-41.34,41.34-22.79,0-41.34-18.54-41.34-41.34C34.57,18.54,53.12,0,75.91,0ZM75.91,72.84c17.37,0,31.5-14.13,31.5-31.5s-14.13-31.5-31.5-31.5-31.5,14.13-31.5,31.5c0,17.37,14.13,31.5,31.5,31.5Z"/>
  <path class="cls-1" d="M23.04,88c12.71,0,23.04,10.34,23.04,23.04,0,12.71-10.34,23.04-23.04,23.04S0,123.75,0,111.04c0-12.71,10.34-23.04,23.04-23.04ZM23.04,128.6c9.68,0,17.56-7.88,17.56-17.56,0-9.68-7.88-17.56-17.56-17.56s-17.56,7.88-17.56,17.56c0,9.68,7.88,17.56,17.56,17.56Z"/>
</svg>