<?xml version="1.0" encoding="UTF-8"?>
<svg id="Layer_1" data-name="Layer 1" xmlns="http://www.w3.org/2000/svg" viewBox="0 0 374 468.75">
  <defs>
    <style>
      .cls-1 {
        fill: #a31e00;
        opacity: .53;
      }
    </style>
  </defs>
  <path class="cls-1" d="M155.5,311C69.76,311,0,241.24,0,155.5S69.76,0,155.5,0s155.5,69.76,155.5,155.5-69.76,155.5-155.5,155.5ZM155.5,37c-65.34,0-118.5,53.16-118.5,118.5s53.16,118.5,118.5,118.5,118.5-53.16,118.5-118.5-53.16-118.5-118.5-118.5Z"/>
  <path class="cls-1" d="M296.3,468.75c-42.84,0-77.7-34.86-77.7-77.7s34.86-77.7,77.7-77.7,77.7,34.86,77.7,77.7-34.86,77.7-77.7,77.7ZM296.3,331.84c-32.65,0-59.21,26.56-59.21,59.21s26.56,59.21,59.21,59.21,59.21-26.56,59.21-59.21-26.56-59.21-59.21-59.21Z"/>
</svg>