<svg width="42" height="42" viewBox="0 0 42 42" fill="none" xmlns="http://www.w3.org/2000/svg">
<path d="M41.2068 25.2089L38.0071 22.6819C37.4972 22.2793 37.2142 21.6623 37.214 21.0127C37.214 21.0059 37.214 20.999 37.214 20.9921C37.2128 20.3411 37.4962 19.7224 38.007 19.319L41.2068 16.7919C41.9396 16.2132 42.1988 15.2181 41.8415 14.3555L40.4359 10.9622C40.0786 10.0995 39.1918 9.57914 38.2644 9.68808L34.2148 10.1639C33.5684 10.2398 32.9306 10.0026 32.471 9.54157C32.4662 9.53665 32.4613 9.53181 32.4565 9.52697C31.9974 9.06743 31.7612 8.43103 31.837 7.78586L32.3127 3.73655C32.4216 2.80919 31.9013 1.92235 31.0387 1.56502L27.6453 0.159494C26.7826 -0.197834 25.7876 0.0613849 25.2089 0.794088L22.6819 3.99372C22.2793 4.50354 21.6623 4.78655 21.0127 4.7868C21.0058 4.7868 20.9989 4.7868 20.992 4.7868C20.3411 4.78794 19.7224 4.50461 19.319 3.9938L16.792 0.794088C16.2133 0.0613029 15.2182 -0.197834 14.3555 0.159494L10.9623 1.56494C10.0996 1.92226 9.57922 2.8091 9.68816 3.73655L10.1639 7.7861C10.2398 8.43259 10.0028 9.07039 9.54165 9.52984C9.53681 9.53468 9.53197 9.53952 9.52705 9.54444C9.06751 10.0037 8.43111 10.2398 7.78586 10.1639L3.73655 9.68824C2.80919 9.57931 1.92235 10.0996 1.56502 10.9623L0.159494 14.3556C-0.197834 15.2182 0.0613848 16.2133 0.794088 16.792L3.9938 19.319C4.50362 19.7216 4.78663 20.3385 4.78688 20.9881C4.78688 20.995 4.78688 21.0018 4.78688 21.0087C4.78802 21.6596 4.50469 22.2783 3.99388 22.6818L0.794088 25.2089C0.0613029 25.7876 -0.197834 26.7827 0.159494 27.6453L1.56502 31.0385C1.92235 31.9012 2.80927 32.4216 3.73655 32.3126L7.7861 31.8369C8.43267 31.761 9.07038 31.9981 9.52992 32.4592C9.53476 32.4641 9.5396 32.469 9.54452 32.4738C10.0037 32.9334 10.2398 33.5698 10.164 34.215L9.68832 38.2644C9.57939 39.1918 10.0997 40.0786 10.9624 40.4359L14.3557 41.8415C15.2184 42.1988 16.2134 41.9396 16.7921 41.2069L19.319 38.0072C19.7216 37.4974 20.3387 37.2144 20.9882 37.2141C20.9951 37.2141 21.002 37.2141 21.0088 37.2141C21.6598 37.2129 22.2785 37.4963 22.6819 38.0071L25.209 41.2069C25.7877 41.9397 26.7827 42.1989 27.6454 41.8415L31.0387 40.4359C31.9013 40.0786 32.4217 39.1917 32.3128 38.2644L31.837 34.2149C31.761 33.5684 31.9982 32.9306 32.4593 32.4711C32.4641 32.4663 32.4691 32.4614 32.4739 32.4565C32.9334 31.9974 33.5698 31.7612 34.215 31.837L38.2644 32.3127C39.1918 32.4216 40.0787 31.9013 40.4359 31.0387L41.8415 27.6455C42.1988 26.7827 41.9396 25.7876 41.2068 25.2089ZM23.0752 27.046C19.8202 28.3942 16.0884 26.8485 14.7402 23.5935C13.392 20.3385 14.9377 16.6068 18.1927 15.2585C21.4477 13.9102 25.1794 15.4559 26.5277 18.711C27.8759 21.966 26.3302 25.6977 23.0752 27.046Z" fill="#FDFDFD"/>
</svg>
