<svg width="46" height="45" viewBox="0 0 46 45" fill="none" xmlns="http://www.w3.org/2000/svg">
<path d="M23 30.5625L31.0625 22.5M31.0625 22.5L23 14.4375M31.0625 22.5H1.5M14.9375 9.73059V9.60054C14.9375 6.59024 14.9375 5.08398 15.5233 3.93421C16.0386 2.92283 16.8603 2.10115 17.8717 1.58585C19.0214 1 20.5278 1 23.538 1H35.9005C38.9108 1 40.4139 1 41.5636 1.58585C42.5749 2.10115 43.3995 2.92283 43.9147 3.93421C44.5 5.08285 44.5 6.58729 44.5 9.5917V35.4097C44.5 38.414 44.5 39.9163 43.9147 41.065C43.3995 42.0763 42.5749 42.8995 41.5636 43.4147C40.415 44 38.9127 44 35.9083 44H23.5292C20.5248 44 19.0203 44 17.8717 43.4147C16.8603 42.8995 16.0386 42.0755 15.5233 41.0642C14.9375 39.9145 14.9375 38.4103 14.9375 35.4V35.2656" stroke="#FDFDFD" stroke-width="2" stroke-linecap="round" stroke-linejoin="round"/>
</svg>
