<?xml version="1.0" encoding="UTF-8"?>
<svg id="Layer_1" xmlns="http://www.w3.org/2000/svg" viewBox="0 0 184.25 78.06">
  <defs>
    <style>
      .cls-1 {
        fill: #fdfdfd;
      }
    </style>
  </defs>
  <path class="cls-1" d="M96.18,33.59v27.74h-3.73l-.67-3.67h-.21c-.59.97-1.35,1.76-2.28,2.38-.93.62-1.95,1.08-3.05,1.37-1.1.29-2.26.44-3.47.44-2.21,0-4.06-.35-5.56-1.06-1.5-.71-2.63-1.8-3.39-3.29s-1.14-3.4-1.14-5.74v-18.16h4.61v17.85c0,2.21.5,3.86,1.5,4.97,1,1.1,2.55,1.66,4.66,1.66s3.7-.39,4.89-1.17,2.04-1.91,2.54-3.42c.5-1.5.75-3.32.75-5.46v-14.44h4.55Z"/>
  <path class="cls-1" d="M105.08,23.19c.69,0,1.3.23,1.84.7.53.47.8,1.2.8,2.2s-.27,1.69-.8,2.17c-.54.48-1.15.72-1.84.72-.76,0-1.4-.24-1.92-.72s-.78-1.21-.78-2.17.26-1.73.78-2.2,1.16-.7,1.92-.7ZM107.3,33.59v27.74h-4.55v-27.74h4.55Z"/>
  <path class="cls-1" d="M132.76,61.33h-20.29v-3l14.9-21.22h-14.02v-3.52h19.04v3.42l-14.7,20.8h15.06v3.52Z"/>
  <path class="cls-1" d="M155.84,61.33h-20.29v-3l14.9-21.22h-14.02v-3.52h19.04v3.42l-14.7,20.8h15.06v3.52Z"/>
  <path class="cls-1" d="M157.91,33.59h4.86l6,15.78c.34.93.66,1.83.96,2.69.29.86.56,1.7.8,2.51.24.81.43,1.6.57,2.35h.21c.21-.86.53-1.99.98-3.39.45-1.4.91-2.8,1.4-4.22l5.64-15.73h4.92l-11.95,31.57c-.66,1.72-1.42,3.23-2.3,4.53-.88,1.29-1.95,2.29-3.21,3-1.26.71-2.79,1.06-4.58,1.06-.83,0-1.55-.04-2.17-.13s-1.16-.18-1.6-.28v-3.62c.38.07.84.14,1.37.21.53.07,1.09.1,1.68.1,1.07,0,1.99-.2,2.77-.6.78-.4,1.44-.97,1.99-1.71.55-.74,1.02-1.61,1.4-2.61l1.45-3.67-11.18-27.84Z"/>
  <path class="cls-1" d="M62.24,51.84c3.33-5.23,5.27-11.43,5.27-18.08C67.51,15.14,52.37,0,33.76,0S0,15.14,0,33.76s15.14,33.76,33.76,33.76c5.41,0,10.52-1.29,15.05-3.56,1.24,4.11,5.06,7.1,9.57,7.1,5.52,0,10-4.48,10-10,0-4.15-2.53-7.72-6.14-9.23ZM8.03,33.76c0-14.18,11.54-25.73,25.73-25.73s25.73,11.54,25.73,25.73-11.54,25.73-25.73,25.73-25.73-11.54-25.73-25.73Z"/>
  <circle class="cls-1" cx="72.88" cy="72.56" r="5.5"/>
</svg>